<svg width="110" height="119" viewBox="0 0 110 119" fill="none" xmlns="http://www.w3.org/2000/svg">
<path d="M91.1638 0H20.251V70.4953H91.1638V0Z" fill="#263247"/>
<path d="M28.3405 100.615C32.9485 100.615 36.9805 98.3473 39.1405 94.7833L34.1725 91.9033C33.0925 93.8473 30.8965 94.9993 28.3405 94.9993C23.8765 94.9993 20.9965 92.0113 20.9965 87.5113C20.9965 83.0113 23.8765 80.0233 28.3405 80.0233C30.8965 80.0233 33.0565 81.1753 34.1725 83.1193L39.1405 80.2393C36.9445 76.6753 32.9125 74.4073 28.3405 74.4073C20.7445 74.4073 15.2365 80.0953 15.2365 87.5113C15.2365 94.9273 20.7445 100.615 28.3405 100.615ZM50.4757 100.615C55.7677 100.615 60.0157 96.4753 60.0157 91.1113C60.0157 85.7473 55.7677 81.6073 50.4757 81.6073C45.1837 81.6073 40.9357 85.7473 40.9357 91.1113C40.9357 96.4753 45.1837 100.615 50.4757 100.615ZM50.4757 95.3593C48.1357 95.3593 46.3357 93.6673 46.3357 91.1113C46.3357 88.5553 48.1357 86.8633 50.4757 86.8633C52.8157 86.8633 54.6157 88.5553 54.6157 91.1113C54.6157 93.6673 52.8157 95.3593 50.4757 95.3593ZM68.4701 85.3153V82.1113H63.0701V100.111H68.4701V91.9753C68.4701 88.4113 71.6381 87.5113 73.8701 87.8713V81.7513C71.6021 81.7513 69.1901 82.9033 68.4701 85.3153ZM80.691 93.2713H93.471C93.615 92.5873 93.687 91.8673 93.687 91.1113C93.687 85.6753 89.799 81.6073 84.543 81.6073C78.855 81.6073 74.967 85.7473 74.967 91.1113C74.967 96.4753 78.783 100.615 84.939 100.615C88.359 100.615 91.023 99.3553 92.787 96.9073L88.467 94.4233C87.747 95.2153 86.487 95.7913 85.011 95.7913C83.031 95.7913 81.375 95.1433 80.691 93.2713ZM80.583 89.2393C81.087 87.4033 82.455 86.3953 84.507 86.3953C86.127 86.3953 87.747 87.1513 88.323 89.2393H80.583Z" fill="#263247"/>
<path d="M56.0328 48.8232C48.7954 51.0501 41.0709 46.8746 38.844 39.6372C36.6171 32.3998 40.7925 24.6056 48.0299 22.4483C55.3369 20.2214 62.9919 24.3273 65.2188 31.6343C67.4457 38.9413 63.3399 46.5963 56.0328 48.8232ZM49.6305 27.7372C45.2463 29.0594 42.8106 33.722 44.1328 38.0366C45.4551 42.3512 50.1176 44.8565 54.4323 43.5343C58.8165 42.2121 61.2521 37.5495 59.9299 33.2349C58.6077 28.9203 54.0147 26.415 49.6305 27.7372Z" fill="#59FABF"/>
<path d="M40.6777 36.2099L9.04688 45.8125L10.6439 51.0732L42.2748 41.4706L40.6777 36.2099Z" fill="#59FABF"/>
<path d="M106.986 16.0326L75.355 25.6353L76.9521 30.896L108.583 21.2933L106.986 16.0326Z" fill="#59FABF"/>
<path d="M43.924 8.87822C36.1298 11.2443 30.2146 16.6724 26.9438 23.4923L31.8152 26.0671C34.4596 20.4999 39.2614 16.0461 45.5941 14.1671C57.4245 10.5484 70.0205 17.2987 73.5696 29.1291C77.1187 40.9595 70.438 53.5554 58.6076 57.1045C51.9269 59.1227 44.9678 57.87 39.6093 54.2513L37.0345 59.1227C43.7152 63.3677 52.1357 64.8291 60.2778 62.3934C75.031 57.9396 83.3819 42.2817 78.9281 27.5285C74.3351 12.7753 58.6772 4.35482 43.924 8.87822Z" fill="#59FABF"/>
</svg>
