<svg width="495" height="278" viewBox="0 0 495 278" fill="none" xmlns="http://www.w3.org/2000/svg">
<path d="M233.598 204.675C197.616 215.747 159.212 194.988 148.141 159.006C137.069 123.024 157.828 84.2736 193.81 73.5482C230.138 62.4768 268.196 82.8897 279.268 119.218C290.339 155.546 269.926 193.604 233.598 204.675ZM201.768 99.8428C179.971 106.416 167.862 129.597 174.435 151.048C181.009 172.499 204.19 184.954 225.641 178.381C247.437 171.807 259.547 148.626 252.973 127.175C246.4 105.724 223.565 93.2692 201.768 99.8428Z" fill="#0F1828"/>
<path d="M157.258 141.966L0 189.708L7.94011 215.862L165.198 168.121L157.258 141.966Z" fill="#0F1828"/>
<path d="M486.92 41.6519L329.662 89.3931L337.602 115.548L494.86 67.8064L486.92 41.6519Z" fill="#0F1828"/>
<path d="M173.397 6.08249C134.647 17.8459 105.239 44.8324 88.9775 78.7386L113.196 91.54C126.344 63.8614 150.216 41.7186 181.701 32.3771C240.517 14.386 303.14 47.9463 320.785 106.763C338.43 165.58 305.216 228.203 246.399 245.848C213.185 255.881 178.587 249.654 151.946 231.663L139.145 255.881C172.359 276.986 214.223 284.252 254.703 272.142C328.051 250 369.569 172.154 347.426 98.8056C324.591 25.4575 246.745 -16.4063 173.397 6.08249Z" fill="#0F1828"/>
</svg>
