<svg width="95" height="45" viewBox="0 0 95 45" fill="none" xmlns="http://www.w3.org/2000/svg">
<path d="M65.7477 4.33444C65.7477 1.97876 63.7725 0 61.421 0C59.0695 0 57.0942 1.97876 57.0942 4.33444C57.0942 6.69011 59.0695 8.66887 61.421 8.66887C63.7725 8.66887 65.7477 6.69011 65.7477 4.33444Z" fill="#E2E2E2"/>
<path d="M65.4656 11.0244H57.3765V35.8061H65.4656V11.0244Z" fill="#E2E2E2"/>
<path d="M83.6189 11.0246H93.9654L83.2426 20.9184L95.0001 35.8062H84.5595L75.906 26.1009V35.8062H67.8169V0.0942383H75.906V19.505L83.6189 11.0246Z" fill="#E2E2E2"/>
<path d="M41.8565 29.2101C37.906 29.2101 36.307 26.8545 36.307 23.2738C36.307 19.9759 37.906 17.526 41.8565 17.526C45.4308 17.526 47.2179 20.0701 47.2179 23.2738C47.1238 26.7602 45.4308 29.2101 41.8565 29.2101ZM43.7377 10.3647C39.5991 10.3647 37.2476 11.9666 35.9308 13.6627V11.4955V10.9301H28.0298V44.8518H35.9308V35.806V32.6023H36.0248C36.8714 34.2984 39.3169 36.2771 43.2674 36.2771C50.6981 36.2771 55.4951 31.3773 55.4951 23.3681C55.4951 15.1703 50.9803 10.3647 43.7377 10.3647Z" fill="#E2E2E2"/>
<path d="M7.90099 21.2008C7.90099 18.8452 10.2525 16.5837 13.0743 16.5837C16.7426 16.5837 18.2475 19.2221 18.2475 21.1066L7.90099 21.2008ZM13.2624 10.3647C4.89109 10.3647 0 15.8299 0 23.2738C0 31.2831 5.5495 36.1829 12.8861 36.1829C19.7525 36.1829 23.5148 33.733 25.0198 29.4928L17.2129 27.8909C16.1782 28.9274 15.4257 29.2101 12.8861 29.2101C10.4406 29.2101 8.5594 27.7967 7.80693 25.5353L26.1485 25.441C26.6188 16.7722 22.0099 10.3647 13.2624 10.3647Z" fill="#E2E2E2"/>
</svg>
