<svg width="63" height="29" viewBox="0 0 63 29" fill="none" xmlns="http://www.w3.org/2000/svg">
<path d="M43.1419 2.791C43.1419 1.27415 41.85 0 40.3121 0C38.7743 0 37.4824 1.27415 37.4824 2.791C37.4824 4.30785 38.7743 5.58201 40.3121 5.58201C41.85 5.58201 43.1419 4.30785 43.1419 2.791Z" fill="white"/>
<path d="M42.9573 7.09863H37.667V23.0559H42.9573V7.09863Z" fill="white"/>
<path d="M54.8303 7.09873H61.597L54.5842 13.4695L62.2737 23.056H55.4454L49.786 16.8066V23.056H44.4956V0.0605469H49.786V12.5594L54.8303 7.09873Z" fill="white"/>
<path d="M27.5169 18.8086C24.9333 18.8086 23.8875 17.2918 23.8875 14.9862C23.8875 12.8626 24.9333 11.285 27.5169 11.285C29.8545 11.285 31.0233 12.9232 31.0233 14.9862C30.9618 17.2311 29.8545 18.8086 27.5169 18.8086ZM28.7473 6.67383C26.0406 6.67383 24.5027 7.70529 23.6414 8.79742V7.40192V7.03787H18.4741V28.8805H23.6414V23.0558V20.9929H23.703C24.2566 22.085 25.856 23.3592 28.4397 23.3592C33.2994 23.3592 36.4367 20.2041 36.4367 15.0468C36.4367 9.7682 33.484 6.67383 28.7473 6.67383Z" fill="white"/>
<path d="M5.3099 13.6518C5.3099 12.135 6.8478 10.6788 8.69327 10.6788C11.0924 10.6788 12.0766 12.3777 12.0766 13.5911L5.3099 13.6518ZM8.8163 6.67432C3.3414 6.67432 0.142578 10.1934 0.142578 14.9867C0.142578 20.1439 3.77201 23.299 8.57024 23.299C13.0609 23.299 15.5215 21.7215 16.5058 18.9911L11.4 17.9597C10.7233 18.6271 10.2312 18.8091 8.57024 18.8091C6.97083 18.8091 5.74051 17.899 5.24839 16.4428L17.244 16.3822C17.5515 10.8001 14.5373 6.67432 8.8163 6.67432Z" fill="white"/>
</svg>
